/* XPM */
static const char* const image0_data[] = { 
"32 32 27 1",
". c None",
"c c #080c08",
"f c #390808",
"e c #420808",
"w c #422008",
"p c #4a0400",
"k c #520400",
"n c #632c08",
"l c #633008",
"m c #633808",
"d c #6b2c08",
"u c #734510",
"b c #7b0000",
"v c #7b4110",
"# c #840000",
"t c #845110",
"a c #a54108",
"o c #ad4108",
"q c #ad4508",
"j c #ad4908",
"h c #b55108",
"i c #bd6510",
"r c #c66910",
"s c #c66d10",
"x c #ce8210",
"y c #e79e18",
"g c #e7a218",
"................................",
"..........##....................",
"..#.##.....#ab.#...#............",
"..##b......cda.e...#............",
"....##......cd#fghe#............",
"....ijb....#.khllfc....#........",
".....i##...bldb##......#........",
".....lm#...aa#b........b........",
"#.....l#.#jab#.......##bi.......",
"#b#h.#lb#nd###...##.###oh...#...",
".#pd.#ipjdb#....#bb.b#ha#...#...",
"..#db#mpb#......boo.bhia#.#b#...",
"..#bd#mb........j##.#o##bb#j#...",
"...#d##...##...ija#jqa#badlg....",
"....nj#..phi..#r#iqhndqhkk##....",
"....#qb#pq...#jbstdunpepk###....",
"f...#jbijb...ia#ttvdbb#alk#b#...",
"e##.#hpnb#...##btv#b#.bbgdd#p...",
".eih.h####....##ddb##.#..#qok#..",
"..foqlk##b..#..#p##b#...###jdb#.",
"..ffoh##.#..###...#.#..#bjnpec#.",
"....ph##.##.##b...b###bbhqlbb#..",
"...##ib####.#.ew#..nd#iorpc#b#..",
"###jrb###b..bb#pj#.iuud##p##....",
".##ppoa##b##b#.bpdb###ab#e......",
"..##epbbbb.b####bd###hxopp#.....",
"....##pmljb#jjh..#bbmiqbjd##....",
"....ddhqbhjba#ba##bonrb.bda.....",
"..#bp...###jbefeb#yjp#...####...",
"...#....bb.rpfb##.ibpe.....#b#..",
"..##....#bqhe.#.#..###..........",
"...........#........#..........."};
